<?xml version="1.0" standalone="no"?><!DOCTYPE svg PUBLIC "-//W3C//DTD SVG 1.1//EN" "http://www.w3.org/Graphics/SVG/1.1/DTD/svg11.dtd"><svg t="1671279805832" class="icon" viewBox="0 0 1024 1024" version="1.1" xmlns="http://www.w3.org/2000/svg" p-id="3546" xmlns:xlink="http://www.w3.org/1999/xlink" width="200" height="200"><path d="M426.666667 128H170.666667c-23.466667 0-42.666667 19.2-42.666667 42.666667v256c0 23.466667 19.2 42.666667 42.666667 42.666666h256c23.466667 0 42.666667-19.2 42.666666-42.666666V170.666667c0-23.466667-19.2-42.666667-42.666666-42.666667z m-42.666667 234.666667c0 10.666667-8.533333 21.333333-21.333333 21.333333h-128c-10.666667 0-21.333333-8.533333-21.333334-21.333333v-128c0-10.666667 8.533333-21.333333 21.333334-21.333334h128c10.666667 0 21.333333 8.533333 21.333333 21.333334v128z" fill="#ffffff" p-id="3547"></path><path d="M674.133333 108.8l-181.333333 181.333333c-17.066667 17.066667-17.066667 42.666667 0 59.733334l181.333333 181.333333c17.066667 17.066667 42.666667 17.066667 59.733334 0l181.333333-181.333333c17.066667-17.066667 17.066667-42.666667 0-59.733334l-181.333333-181.333333c-17.066667-17.066667-42.666667-17.066667-59.733334 0z m136.533334 196.266667c8.533333 8.533333 8.533333 21.333333 0 29.866666L718.933333 426.666667c-8.533333 8.533333-21.333333 8.533333-29.866666 0L597.333333 334.933333c-8.533333-8.533333-8.533333-21.333333 0-29.866666l91.733334-91.733334c8.533333-8.533333 21.333333-8.533333 29.866666 0l91.733334 91.733334z" fill="#ffffff" p-id="3548"></path><path d="M853.333333 554.666667H597.333333c-23.466667 0-42.666667 19.2-42.666666 42.666666v256c0 23.466667 19.2 42.666667 42.666666 42.666667h256c23.466667 0 42.666667-19.2 42.666667-42.666667V597.333333c0-23.466667-19.2-42.666667-42.666667-42.666666z m-42.666666 234.666666c0 10.666667-8.533333 21.333333-21.333334 21.333334h-128c-10.666667 0-21.333333-8.533333-21.333333-21.333334v-128c0-10.666667 8.533333-21.333333 21.333333-21.333333h128c10.666667 0 21.333333 8.533333 21.333334 21.333333v128zM426.666667 554.666667H170.666667c-23.466667 0-42.666667 19.2-42.666667 42.666666v256c0 23.466667 19.2 42.666667 42.666667 42.666667h256c23.466667 0 42.666667-19.2 42.666666-42.666667V597.333333c0-23.466667-19.2-42.666667-42.666666-42.666666z m-42.666667 234.666666c0 10.666667-8.533333 21.333333-21.333333 21.333334h-128c-10.666667 0-21.333333-8.533333-21.333334-21.333334v-128c0-10.666667 8.533333-21.333333 21.333334-21.333333h128c10.666667 0 21.333333 8.533333 21.333333 21.333333v128z" fill="#ffffff" p-id="3549"></path></svg>