<?xml version="1.0" standalone="no"?><!DOCTYPE svg PUBLIC "-//W3C//DTD SVG 1.1//EN" "http://www.w3.org/Graphics/SVG/1.1/DTD/svg11.dtd"><svg t="1671279895885" class="icon" viewBox="0 0 1024 1024" version="1.1" xmlns="http://www.w3.org/2000/svg" p-id="4207" xmlns:xlink="http://www.w3.org/1999/xlink" width="200" height="200"><path d="M384 192h256c17.6 0 32-14.4 32-32V96c0-17.6-14.4-32-32-32H384c-17.6 0-32 14.4-32 32v64c0 17.6 14.4 32 32 32z" fill="#ffffff" p-id="4208"></path><path d="M768 96h-32v64c0 52.9-43.1 96-96 96H384c-52.9 0-96-43.1-96-96V96h-32c-70.4 0-128 57.6-128 128v608c0 70.4 57.6 128 128 128h512c70.4 0 128-57.6 128-128V224c0-70.4-57.6-128-128-128z m-64 640c0 17.6-14.4 32-32 32H352c-17.6 0-32-14.4-32-32s14.4-32 32-32h320c17.6 0 32 14.4 32 32z m0-160c0 17.6-14.4 32-32 32H352c-17.6 0-32-14.4-32-32s14.4-32 32-32h320c17.6 0 32 14.4 32 32z m0-160c0 17.6-14.4 32-32 32H352c-17.6 0-32-14.4-32-32s14.4-32 32-32h320c17.6 0 32 14.4 32 32z" fill="#ffffff" p-id="4209"></path></svg>