<?xml version="1.0" standalone="no"?><!DOCTYPE svg PUBLIC "-//W3C//DTD SVG 1.1//EN" "http://www.w3.org/Graphics/SVG/1.1/DTD/svg11.dtd"><svg t="1671279938102" class="icon" viewBox="0 0 1024 1024" version="1.1" xmlns="http://www.w3.org/2000/svg" p-id="3738" xmlns:xlink="http://www.w3.org/1999/xlink" width="200" height="200"><path d="M840.533333 130.133333l-682.666666 215.466667c-34.133333 10.666667-40.533333 55.466667-12.8 74.666667l174.933333 123.733333c10.666667 6.4 23.466667 4.266667 29.866667-4.266667l25.6-34.133333c6.4-10.666667 4.266667-23.466667-4.266667-29.866667l-104.533333-74.666666 454.4-142.933334-290.133334 326.4-8.533333 264.533334c-2.133333 38.4 46.933333 59.733333 72.533333 32l121.6-123.733334 125.866667 87.466667c25.6 19.2 61.866667 2.133333 66.133333-29.866667l85.333334-637.866666c4.266667-29.866667-23.466667-55.466667-53.333334-46.933334z m-104.533333 603.733334l-115.2-81.066667c-10.666667-6.4-23.466667-4.266667-29.866667 4.266667l-14.933333 21.333333-64 66.133333 4.266667-123.733333 275.2-313.6-55.466667 426.666667z" fill="#ffffff" p-id="3739"></path></svg>