<svg xmlns="http://www.w3.org/2000/svg" width="20" height="20" viewBox="0 0 20 20">
  <defs>
    <style>
      .cls-1 {
        fill: #fff;
        opacity: 0;
      }

      .cls-2, .cls-3 {
        fill: #3462fd;
      }

      .cls-3 {
        opacity: 0.4;
      }
    </style>
  </defs>
  <g id="组_645" data-name="组 645" transform="translate(-1396.612 -21.52)">
    <rect id="矩形_1175" data-name="矩形 1175" class="cls-1" width="20" height="20" transform="translate(1396.612 21.52)"/>
    <g id="展开_9_" data-name="展开 (9)" transform="translate(1270.494 -165.979)">
      <path id="路径_220" data-name="路径 220" class="cls-2" d="M131.386,198.578l4.392-4.975a.454.454,0,0,1,.681,0l4.392,4.975a.454.454,0,0,1-.341.755h-8.784A.454.454,0,0,1,131.386,198.578Z"/>
      <path id="路径_221" data-name="路径 221" class="cls-3" d="M140.83,736.7h-9.367a.164.164,0,0,0-.163.163v.89a.164.164,0,0,0,.163.163h9.368a.164.164,0,0,0,.163-.163v-.89A.166.166,0,0,0,140.83,736.7Z" transform="translate(-0.028 -536.37)"/>
    </g>
  </g>
</svg>
