<?xml version="1.0" standalone="no"?><!DOCTYPE svg PUBLIC "-//W3C//DTD SVG 1.1//EN" "http://www.w3.org/Graphics/SVG/1.1/DTD/svg11.dtd"><svg t="1671278578268" class="icon" viewBox="0 0 1024 1024" version="1.1" xmlns="http://www.w3.org/2000/svg" p-id="3661" xmlns:xlink="http://www.w3.org/1999/xlink" width="200" height="200"><path d="M950 431.4l-149.3-256c-28.6-49-81.5-79.4-138.2-79.4h-301c-56.7 0-109.6 30.4-138.2 79.4L74 431.4c-29 49.7-29 111.5 0 161.2l149.3 256c28.6 49 81.5 79.4 138.2 79.4h301c56.7 0 109.6-30.4 138.2-79.4l149.3-256c29-49.7 29-111.5 0-161.2zM512 672c-88.4 0-160-71.6-160-160s71.6-160 160-160 160 71.6 160 160-71.6 160-160 160z" fill="#ffffff" p-id="3662"></path></svg>