<?xml version="1.0" standalone="no"?><!DOCTYPE svg PUBLIC "-//W3C//DTD SVG 1.1//EN" "http://www.w3.org/Graphics/SVG/1.1/DTD/svg11.dtd"><svg t="1671278525439" class="icon" viewBox="0 0 1024 1024" version="1.1" xmlns="http://www.w3.org/2000/svg" p-id="2933" xmlns:xlink="http://www.w3.org/1999/xlink" width="200" height="200"><path d="M512 64C264.6 64 64 264.6 64 512s200.6 448 448 448 448-200.6 448-448S759.4 64 512 64zM288 416c0-26.5 21.5-48 48-48s48 21.5 48 48-21.5 48-48 48-48-21.5-48-48z m224 288c-85.4 0-155.4-67.3-159.8-151.6-0.2-4.6 3.4-8.4 8-8.4h48c4.2 0 7.7 3.2 8.1 7.4 3.8 49.5 45.3 88.6 95.7 88.6s91.9-39.1 95.7-88.6c0.3-4.2 3.9-7.4 8.1-7.4h48c4.6 0 8.2 3.8 8 8.4C667.4 636.7 597.4 704 512 704z m176-240c-26.5 0-48-21.5-48-48s21.5-48 48-48 48 21.5 48 48-21.5 48-48 48z" fill="#ffffff" p-id="2934"></path></svg>